<?xml version="1.0" encoding="utf-8"?>
<!-- Generator: Adobe Illustrator 18.0.0, SVG Export Plug-In . SVG Version: 6.00 Build 0)  -->
<!DOCTYPE svg PUBLIC "-//W3C//DTD SVG 1.1//EN" "http://www.w3.org/Graphics/SVG/1.1/DTD/svg11.dtd">
<svg version="1.1" id="MainQuestConstrucao" xmlns="http://www.w3.org/2000/svg" xmlns:xlink="http://www.w3.org/1999/xlink" x="0px" y="0px"
	 viewBox="0 0 500 500" style="enable-background:new 0 0 500 500;" xml:space="preserve">

<path style="fill:#BE7228;" d="M245.4,491.4L9.1,255.1c-3.2-3.2-3.2-8.4,0-11.6L245.4,7.2c3.2-3.2,8.4-3.2,11.6,0l236.2,236.2
	c3.2,3.2,3.2,8.4,0,11.6L257,491.4C253.8,494.6,248.6,494.6,245.4,491.4z"/>
<path style="fill:#000;" d="M245.4,476.8L23.6,255.1c-3.2-3.2-3.2-8.4,0-11.6L245.4,21.7c3.2-3.2,8.4-3.2,11.6,0l221.7,221.7c3.2,3.2,3.2,8.4,0,11.6
	L257,476.8C253.8,480.1,248.6,480.1,245.4,476.8z"/>
<path style="fill:#BE7228;" d="M247.4,458.8L42.3,253.8c-3.2-3.2-3.2-8.4,0-11.6L247.4,37.1c3.2-3.2,8.4-3.2,11.6,0l205.1,205.1
	c3.2,3.2,3.2,8.4,0,11.6L259,458.8C255.8,462.1,250.6,462.1,247.4,458.8z"/>
<path style="fill:#FFFFFF;" d="M266.3,482.5c4.6-34.6,17.8-132.7,27.4-203.7c1.1-0.2,2.2-0.5,3.3-1c1.8-5.3,4.1-18.5,1-25.3
	c-0.3,0.2-0.6,0.5-0.9,0.7c4.2-31.3,7.2-52.9,7.4-53.6c0.7-2.6,0.5-20.4,1.2-22.4c0.7-2,3.5-3.2,5.6-3.7c2.1-0.6,6,4,6,4
	s10-1.3,10.6-1.6s-0.1-2-0.2-2.7c-0.1-0.7,0.8-10.1,7.6-31.9c6.7-21.7-18-30.4-19.1-30.1c-13.9,5-19.3,13.3-27.1,23.5
	c-7.8,10.2-16.7,50-16.6,50.7s1.8,2.1,2.8,2.6s9.3-3.5,9.8-3.9c0.5-0.4-0.6-2.9-0.6-2.9s0.4-1.9,3.6-2.8s5.3,2.5,7.5,7.2
	c2.2,4.7,0.7,13.1,0.7,13.1s-3.3,22.9-8.2,55.9c-0.3,0-0.5,0-0.8-0.1c0,0-2.7-0.1-5.2,9.1c-1.1,3.9,3.4,11.7-14.8,12.7
	c-6.4-20.3-21.5-54-45-63c-0.4-1.1-0.7-4.2,1.5-4.7c5.3-1.3,6.2-9.5,6.9-16.7c0.1-1.2,2.3-3.3,2.3-4.4c0-3.3-4.1-5.3-4.6-8.5
	c-0.8-5-1.5-20.8-23.6-16.4c-30,6-9,42.6-9,42.6c0.3,0.4,0.4,1.8,0.3,3.1c-0.1,1.5-1.2,2.7-2.6,3.1c-11.4,2.9-24.9,6.5-32.2,20.9
	c-11,22.1-8.4,24.8-11,33.1c-7.2,22.5-34.9,49-87.8,34.5c-3.7-1-7.5-1.8-11.1-2.3L193,439.5c0.3-6.8,0.4-13.9,0.1-21
	c3.2-0.2,9.5-5.3,12.7-5.6c-0.4,12-1.2,25.8-1.4,38.1l19.9,19.9c9.7-23.1,15.8-68.8,16.9-85.4c12.6-14.9,20.6-31.2,23.9-41.6
	c8.3-25.7,5.3-44.8,5.9-45.3c4-2.9,7.7-9.3,12.9-16.2c-12.6,86.3-30.4,208.7-30.4,211c0,0.2,0,0.3,0,0.5c1.2-0.4,2.4-1.1,3.3-2
	L266.3,482.5z"/>
</svg>
