<?xml version="1.0" encoding="utf-8"?>
<!-- Generator: Adobe Illustrator 18.0.0, SVG Export Plug-In . SVG Version: 6.00 Build 0)  -->
<!DOCTYPE svg PUBLIC "-//W3C//DTD SVG 1.1//EN" "http://www.w3.org/Graphics/SVG/1.1/DTD/svg11.dtd">
<svg version="1.1" id="MainQuest" xmlns="http://www.w3.org/2000/svg" xmlns:xlink="http://www.w3.org/1999/xlink" x="0px" y="0px"
	 viewBox="0 0 456 106" style="enable-background:new 0 0 456 106;" xml:space="preserve">
    <style type="text/css">
        /* <![CDATA[ */
        path {
            fill: white;
        }
        /* ]]> */
    </style>
<g>
	<path style="fill-rule:evenodd;clip-rule:evenodd;" d="M15.2,19.8c0,22.1,0,44.1,0,66.3c-4.3,0-8.2,0-12.2,0
		c-0.1-1.5,0.6-2,1.9-2.1c3.5-0.5,5.1-2.7,5.1-6c0-21.7,0-43.4,0-65C10,9.8,8.5,7.6,5.2,7C3.9,6.7,2.8,6.5,3.1,4.6
		c5.8,0,11.7,0.1,17.5,0c2.2,0,2.1,1.7,2.6,2.9C30.1,25.1,37,42.7,43.8,60.3c0.4,1.1,0.9,2.2,1.6,3.8c7.7-20,15.2-39.4,22.6-58.7
		c6.2-0.3,12.1-0.6,18.1-0.9c0.5,1.5,0.1,2-1.3,2.3c-4.3,1.1-5.7,3-5.7,7.4C79.1,34.5,79,54.7,79,75c0,5.8,0.7,6.9,6.5,9.1
		c1.2,0.4,1,1.2,0.9,2.1c-5.7,0-11.4,0-17.4,0c0-22.1,0-44.1,0-66.1c-0.3-0.1-0.6-0.1-0.9-0.2c-8.3,22.7-16.6,45.3-25.2,68.9
		c-9.2-23.6-18.1-46.4-27.1-69.1C15.6,19.7,15.4,19.7,15.2,19.8z"/>
	<path style="fill-rule:evenodd;clip-rule:evenodd;" d="M278.9,98.7c0.3-0.9,0.4-1.5,0.6-2c0.4-1.5,1.5-2.2,3-2.3
		c1.3-0.1,2.4,0.6,3,1.7c0.7,1.4,0.4,2.7-0.7,4c-3.7,4.4-12.8,3.8-17.4-1.2c-3-3.3-4.3-7.2-4.6-11.5c-0.1-1.2,0-2.4,0-3.6
		c-19.7,5.6-34.7,0-43.6-16.4c-8.7-16.3-8.4-32.6,1.8-48.1c14.2-21.6,42.8-21.4,57.3,0c11.1,16.5,10.2,38.6-2.5,54.1
		c-1.3,1.6-1.7,3.1-1.5,5.1c0.3,3.6,0,7.2,0.2,10.8C274.5,92.7,275.3,96.1,278.9,98.7z M269.6,65.8c4.7-10.5,5.7-20.9,3.8-31.6
		c-1.6-8.7-4.9-16.6-11.8-22.6c-7.4-6.4-16.4-6.4-23.9-0.1c-3,2.5-5.3,5.6-7.2,9c-5.4,10.2-6.3,21.1-4.9,32.3
		c0.5,4.1,1.4,8.2,3.8,12.3c5.8-5.4,12.1-8.6,20.1-8.6C257.5,56.6,263.8,60,269.6,65.8z M249.3,81.8c3.5,0,7.4-1.3,10.5-3.6
		c0.9-0.7,2.1-1.2,2.3-2.6c0.6-4.5-4.3-12.4-8.7-14c-7.6-2.7-17.8,4.4-17.9,12.3c0,0.8,0.3,1.3,0.9,1.9
		C240.1,79.5,244.4,81.6,249.3,81.8z"/>
	<path style="fill-rule:evenodd;clip-rule:evenodd;" d="M131.2,47.9c5.9-0.8,11.6-1.5,17.6-2.3c0,10.4,0,20.4,0,30.3
		c0,5.8,1.6,8,6.9,9.4c2,0.5,7.2-3.4,7.4-5.8c0.4-8.8,0.4-17.6,0-26.3c-0.1-2.5-1.9-3.8-4.2-4.3c-1.2-0.3-2.5-0.2-2.5-1.9
		c7.9-2.5,16.9-2.4,18,0.5c4.7-3.5,10-3.6,15.4-2.8c9.6,1.4,15.3,8.2,15.7,18.4c0.2,4.9,0.1,9.9,0,14.8c-0.1,3.5,1.4,5.8,5.1,6.2
		c1.5,0.2,1.9,0.7,1.6,2.1c-5.6,0-11.2,0-17.6,0c0-8.8,0-17.4,0-26c0-2.9-0.6-5.8-1.9-8.4c-3-6.3-11.1-6.9-15.2-1.3
		c-2.4,3.4-3.3,7.2-3.5,11.2c-0.2,5.4-0.1,10.8-0.2,16.3c-0.1,3.6,1.4,5.8,5.1,6.2c1.2,0.1,1.8,0.6,1.6,2.2c-5.5,0-11.1,0-16.7,0
		c-14.7,0-29.4,0-44,0.1c-2.5,0-4.6-0.2-5.6-2.8c-4.3,2.1-8.6,2.9-13.3,2.7C94.3,86,89.3,81,89.4,74.6c0-6.4,5-11.4,11.5-11.5
		c4.1-0.1,8.3,0,12.7,0c0-3.2,0.2-6.2,0-9.2c-0.2-3.5-3-5.9-6.5-6.1c-4.3-0.1-6.9,1.8-7.5,5.6c-0.3,1.7-0.6,3.5-2.7,3.8
		c-1.6,0.2-3.6,0.6-4.8-1c-1.3-1.7-1.3-3.6-0.3-5.4c1.9-3.5,5.2-5.2,8.9-5.6c5-0.6,10-0.5,14.8,1.2c5.7,2.1,8.2,5.4,8.3,11.4
		c0.1,6.4,0,12.8,0.1,19.1c0,3.9,3.4,7.4,7.2,7.6c4.1,0.2,7-2.8,7-7.4c0-6.7-0.1-13.5-0.1-20.2c0-3.7-0.9-6.4-5.1-6.9
		C131.8,50,131.6,49.2,131.2,47.9z M113.6,63.9c-2,0-3.7,0.2-5.3,0c-5.1-0.6-7.2,1.1-8.6,7.5c-0.4,1.6-0.2,3.4,0,5
		c0.8,6.4,4,8.3,10.1,5.8c1.7-0.7,3.9-1.1,3.9-3.7C113.6,73.7,113.6,68.9,113.6,63.9z"/>
	<path style="fill-rule:evenodd;clip-rule:evenodd;" d="M317.7,45.1c8.7,0,16.7,0,24.7,0c0.1,1.8-0.9,2-2.3,2.2
		c-3.1,0.4-4.6,2.5-4.6,5.5c-0.1,8.3-0.1,16.6-0.1,24.9c0,3.1,1.9,4.8,4.8,5.5c1.4,0.3,2.4,0.5,2.1,2.4c-5.9-0.9-12.1,1.4-18.9-1.6
		c-5.8,3.5-13,3.3-20.1-0.1c-5.7-2.7-7.9-8-8.3-13.8c-0.4-5.1-0.2-10.3-0.2-15.5c0-5-0.5-5.8-5.6-7.3c-1-0.3-1.4-0.8-1.5-2
		c5.7,0,11.3,0,17.4,0c0,4.9,0,9.9,0,14.9c0,4.9,0,9.9,0.7,14.8c0.7,5.4,3.4,8.5,7.9,9c4.3,0.5,8-2.2,9.7-7.1
		c1.9-5.3,1.5-10.9,1.5-16.4c0-1.8,0-3.6,0-5.4c0-5.8,0-5.8-5.7-7.9C318.9,46.9,318.5,46.1,317.7,45.1z"/>
	<path style="fill-rule:evenodd;clip-rule:evenodd;" d="M439.6,18.2c0,8.5,0,16.4,0,24.4c2.5,1.3,5.6-0.6,8.3,1.5
		c-2.8,1.3-5.4,0.4-8.3,0.9c0,4.8,0,9.7,0,14.5c0,4.2,0.1,8.4,0,12.6c-0.1,4.6,2.2,7.6,6.4,10c0.1-0.8,0.1-1.2,0.2-1.6
		c0.2-1.8,1.2-2.8,3.1-3c1.5-0.2,2.7,0.4,3.4,1.7c0.7,1.5,0.5,3-0.8,4.3c-3.6,3.4-8,3.4-12.3,2.2c-6.3-1.7-10.6-8.2-10.8-15.6
		c-0.1-7.2,0-14.4,0-21.7c0-1.2,0-2.4,0-3.5c-2.8-0.7-5.5,0.3-8.7-1c3.1-1.7,5.8-0.5,8.6-1.2c0-6.2,0.1-12.6,0-18.9
		c0-2,0.4-3,2.6-3.4C433.9,19.9,436.5,19,439.6,18.2z"/>
	<path style="fill-rule:evenodd;clip-rule:evenodd;" d="M356.8,64.5c-0.4,8.3,4.5,15.4,11.6,17.1c6.4,1.5,13-2.9,16.7-11.1
		c1.1-0.2,2.1-0.3,3.2,0c-1.5,9.9-12,16.9-23.6,15.6c-10.5-1.1-19.3-11.3-18.8-21.9c0.5-11.4,9.9-20.6,21.2-20.7
		c12.5-0.1,21.4,8.2,22.2,20.9C378.4,64.5,367.6,64.5,356.8,64.5z M378.4,61.5c-0.3-4.2-1.4-7.7-3.5-10.9c-3.9-6.1-9.8-6.2-14.2-0.4
		c-2.5,3.4-3.5,7.2-4,11.3C364,61.5,371,61.5,378.4,61.5z"/>
	<path style="fill-rule:evenodd;clip-rule:evenodd;" d="M395.6,82c-0.8,2.1-1.1,2.4-2.7,3.5c0-4.1,0-8.1,0-12.2
		c1.6-0.5,1.7,0.5,2.1,1.8c2,7.2,10.4,10.9,17.3,7.8c2.8-1.3,5.1-3.2,4.6-6.6c-0.4-3.1-2.8-4.6-5.7-5.4c-1.9-0.5-3.9-0.5-5.8-0.6
		c-7.3-0.2-12.7-5.5-12.8-12.6c-0.1-7.1,5.4-13.1,12.5-13.4c4.4-0.2,8.7-0.3,13.1,0.8c0,3,0,6,0,9c-1.5,0.5-1.9-0.1-2.2-1.5
		c-0.6-3.7-3.1-5.7-6.7-6.2c-4-0.6-7.9-0.1-10.7,3.2c-2.1,2.4-1.5,6,1.3,7.8c2.4,1.6,5.2,1.8,8.1,1.9c7.5,0.2,13.1,5.8,13.1,13.2
		c0.1,7-5.8,13-12.9,13.6C403.5,86.7,399.6,84.8,395.6,82z"/>
	<path style="fill-rule:evenodd;clip-rule:evenodd;" d="M148.9,32.7c0,3.5-2.4,5.9-5.9,5.8c-3.2,0-5.7-2.5-5.8-5.7
		c0-3.2,2.4-5.7,5.6-5.8C146.3,26.9,148.8,29.2,148.9,32.7z"/>
</g>
</svg>
